<?xml version="1.0" encoding="UTF-8"?>
<svg id="Layer_1" xmlns="http://www.w3.org/2000/svg" version="1.1" viewBox="0 0 26 30">
  <!-- Generator: Adobe Illustrator 29.0.1, SVG Export Plug-In . SVG Version: 2.1.0 Build 192)  -->
  <defs>
    <style>
      .st0 {
        fill: #fff;
      }
    </style>
  </defs>
  <circle class="st0" cx="17.55" cy="5.21" r="2.61"/>
  <path class="st0" d="M5.26,28.08c-.73,0-1.33-.59-1.33-1.32l-.08-8.66c0-.7.26-1.36.75-1.86.49-.5,1.15-.77,1.85-.77h6.7c.05,0,.1-.03.11-.08l2.05-6.32c.23-.7.98-1.08,1.68-.86.7.23,1.09.98.86,1.68l-2.05,6.32c-.37,1.15-1.44,1.93-2.65,1.93h-6.64s.08,8.59.08,8.59c0,.74-.59,1.34-1.32,1.35,0,0,0,0-.01,0Z"/>
  <path class="st0" d="M16.83,20.21H7.83c-.39,0-.7-.31-.7-.7s.31-.7.7-.7h7.99s2.63-8.06,2.63-8.06c.12-.37.51-.57.88-.45.37.12.57.51.45.88l-2.95,9.02Z"/>
  <path class="st0" d="M7.61,28.4c-.07,0-.14-.01-.21-.03-.37-.12-.57-.51-.45-.88l2.44-7.67c.12-.37.51-.57.88-.45.37.12.57.51.45.88l-2.44,7.67c-.09.3-.37.49-.66.49Z"/>
  <path class="st0" d="M16.3,28.4c-.3,0-.58-.2-.67-.5l-2.3-7.84c-.11-.37.1-.76.47-.87.37-.11.76.1.87.47l2.3,7.84c.11.37-.1.76-.47.87-.07.02-.13.03-.2.03Z"/>
</svg>